# Blender 3.5.1
# www.blender.org
mtllib barrel.mtl
o Circle.031_Circle.041
v 1.388466 0.000002 -1.134457
v 0.251226 0.000002 -1.489866
v 1.941307 0.000002 -0.078997
v 1.688747 0.877472 -1.494167
v 0.209194 0.877472 -1.956556
v 2.407986 0.877472 -0.121017
v 1.827457 1.784192 -1.660326
v 0.189795 1.784192 -2.172127
v 2.623554 1.784192 -0.140436
v 2.111767 1.784192 1.497213
v 1.876825 3.451382 -1.719467
v 2.700294 3.451382 -0.147337
v 2.170906 3.451382 1.546593
v 1.863747 4.650592 1.290173
v 2.301777 4.650592 -0.111458
v 1.371067 5.423242 -1.113617
v 1.914267 5.423242 -0.076567
v 1.620407 4.650592 -1.412308
v 0.218765 4.650592 -1.850336
v 0.182877 3.451382 -2.248857
v -1.082085 4.650592 -1.168968
v 0.253654 5.423242 -1.462828
v -0.783394 5.423242 -0.919626
v -1.389244 3.451382 -1.425377
v -1.918625 3.451382 0.268555
v -1.330105 1.784192 -1.376017
v -1.520115 4.650592 0.232683
v -0.838745 4.650592 1.533524
v -1.132603 5.423242 0.197773
v -0.589396 5.423243 1.234833
v 0.528006 5.423243 1.584034
v 0.562906 4.650592 1.971554
v 0.598785 3.451382 2.370064
v 1.565065 5.423243 1.040844
v -1.095154 3.451382 1.840683
v -1.045784 1.784192 1.781544
v 0.591877 1.784192 2.293333
v 0.572466 0.877472 2.077753
v 1.585896 0.000002 1.058243
v -0.606794 0.000002 1.255672
v -0.907074 0.877472 1.615374
v 0.530445 0.000002 1.611084
v 1.945606 0.877472 1.358513
v -1.626324 0.877472 0.242222
v -1.163933 0.877472 -1.237316
v -1.159636 0.000002 0.200222
v -1.841885 1.784192 0.261642
v -0.804224 0.000002 -0.937017
v 1.190495 5.423242 -0.897306
v 1.371067 5.423242 -1.113617
v 0.278925 5.423242 -1.182188
v 1.633627 5.423242 -0.051306
v 1.348745 5.423242 0.860254
v 1.914267 5.423242 -0.076567
v 1.565065 5.423243 1.040844
v 0.528006 5.423243 1.584034
v 0.502735 5.423243 1.303392
v -0.408825 5.423243 1.018532
v -0.589396 5.423243 1.234833
v -0.851954 5.423242 0.172503
v -1.132603 5.423242 0.197773
v -0.783394 5.423242 -0.919626
v 0.253654 5.423242 -1.462828
v -0.567074 5.423242 -0.739058
v 1.190495 5.212212 -0.897306
v 0.278925 5.212212 -1.182188
v 0.278925 5.423242 -1.182188
v 1.190495 5.423242 -0.897306
v 1.633627 5.212212 -0.051306
v 1.348745 5.212212 0.860254
v 1.633627 5.423242 -0.051306
v 1.348745 5.423242 0.860254
v 0.502735 5.423243 1.303392
v 0.502735 5.212212 1.303392
v -0.408825 5.212212 1.018532
v -0.408825 5.423243 1.018532
v -0.851954 5.423242 0.172503
v -0.567074 5.423242 -0.739058
v -0.851954 5.212212 0.172503
v -0.567074 5.212212 -0.739058
v 0.390837 5.230472 0.060602
v 1.190495 5.212212 -0.897306
v -0.567074 5.212212 -0.739058
v -0.851954 5.212212 0.172503
v -0.408825 5.212212 1.018532
v 0.502735 5.212212 1.303392
v 1.348745 5.212212 0.860254
v 1.633627 5.212212 -0.051306
v 0.278925 5.212212 -1.182188
vn 0.5653 -0.4710 -0.6772
vn -0.0791 -0.4711 -0.8785
vn 0.6016 -0.3446 -0.7207
vn 0.8786 -0.4710 -0.0791
vn 0.9350 -0.3446 -0.0842
vn -0.0842 -0.3446 -0.9350
vn -0.0888 -0.1367 -0.9866
vn 0.9866 -0.1367 -0.0888
vn 0.6348 -0.1367 -0.7605
vn 0.7605 -0.1367 0.6348
vn 0.9873 0.1318 -0.0889
vn 0.6353 0.1318 -0.7610
vn 0.7610 0.1318 0.6353
vn 0.7107 0.3780 0.5933
vn 0.9221 0.3780 -0.0830
vn 0.8896 0.4498 -0.0801
vn 0.5724 0.4498 -0.6856
vn 0.5933 0.3780 -0.7107
vn -0.0830 0.3780 -0.9221
vn -0.0889 0.1318 -0.9873
vn -0.7610 0.1318 -0.6353
vn -0.7107 0.3780 -0.5933
vn -0.6856 0.4498 -0.5724
vn -0.0801 0.4498 -0.8896
vn -0.7605 -0.1367 -0.6348
vn -0.9873 0.1318 0.0889
vn -0.9221 0.3780 0.0830
vn -0.5933 0.3780 0.7107
vn -0.8895 0.4498 0.0801
vn -0.5724 0.4498 0.6856
vn 0.0830 0.3780 0.9221
vn 0.0801 0.4498 0.8895
vn 0.0889 0.1318 0.9873
vn 0.6856 0.4498 0.5724
vn -0.6353 0.1318 0.7610
vn -0.6348 -0.1367 0.7605
vn 0.0888 -0.1367 0.9866
vn 0.0842 -0.3446 0.9350
vn 0.6772 -0.4710 0.5653
vn 0.7207 -0.3446 0.6016
vn 0.0791 -0.4710 0.8786
vn -0.6016 -0.3446 0.7207
vn -0.5653 -0.4710 0.6772
vn -0.9350 -0.3446 0.0842
vn -0.8786 -0.4711 0.0791
vn -0.7207 -0.3446 -0.6016
vn -0.9866 -0.1367 0.0888
vn -0.6772 -0.4711 -0.5653
vn -0.0000 1.0000 -0.0000
vn 0.0897 -0.0000 0.9960
vn -0.6408 -0.0000 0.7677
vn -0.9960 -0.0000 0.0897
vn -0.7677 -0.0000 -0.6408
vn -0.0897 -0.0000 -0.9960
vn 0.6408 -0.0000 -0.7677
vn 0.9960 -0.0000 -0.0897
vn 0.7677 -0.0000 0.6408
vn 0.0146 0.9999 -0.0013
vn 0.0094 0.9999 -0.0112
vn -0.0013 0.9999 -0.0146
vn -0.0112 0.9999 -0.0094
vn -0.0146 0.9999 0.0013
vn -0.0094 0.9999 0.0112
vn 0.0013 0.9999 0.0146
vn 0.0112 0.9999 0.0094
vt 0.511551 0.445725
vt 0.634361 0.444895
vt 0.394998 0.445057
vt 0.511541 0.535801
vt 0.634830 0.537708
vt 0.396073 0.535392
vt 0.511728 0.620212
vt 0.635565 0.620379
vt 0.395713 0.621545
vt 0.278134 0.621378
vt 0.511155 0.772839
vt 0.395397 0.771609
vt 0.278074 0.771877
vt 0.278408 0.888510
vt 0.395916 0.889410
vt 0.513477 0.978570
vt 0.395468 0.979422
vt 0.511859 0.888813
vt 0.632496 0.889713
vt 0.634736 0.772571
vt 0.748440 0.889116
vt 0.631486 0.979217
vt 0.749496 0.978365
vt 0.748930 0.772302
vt 0.867817 0.772034
vt 0.748451 0.620545
vt 0.867513 0.888518
vt 0.040263 0.889705
vt 0.985021 0.889418
vt 0.867505 0.979012
vt 0.985514 0.979659
vt 0.039876 0.978980
vt 0.159450 0.979627
vt 0.159335 0.889482
vt 0.159187 0.771771
vt 0.277459 0.978775
vt 0.040690 0.772040
vt 0.985140 0.771765
vt 0.040629 0.621046
vt 0.985174 0.620878
vt 0.160946 0.621212
vt 0.160836 0.536072
vt 0.278445 0.445887
vt 0.040255 0.444550
vt 0.985584 0.443903
vt 0.039893 0.535663
vt 0.985926 0.538936
vt 0.160719 0.443720
vt 0.277477 0.534982
vt 0.867330 0.538527
vt 0.748733 0.538117
vt 0.867467 0.444733
vt 0.867595 0.620712
vt 0.749350 0.445563
vt 0.487327 0.717817
vt 0.473362 0.690765
vt 0.512076 0.717911
vt 0.462578 0.717724
vt 0.437829 0.717630
vt 0.635821 0.718380
vt 0.443024 0.690650
vt 0.412687 0.690534
vt 0.655388 0.691457
vt 0.625050 0.691341
vt 0.611072 0.718287
vt 0.586323 0.718193
vt 0.594712 0.691226
vt 0.561574 0.718099
vt 0.564375 0.691111
vt 0.534037 0.690995
vt 0.503700 0.690880
vt 0.536825 0.718005
vt 0.393854 0.685072
vt 0.277375 0.685075
vt 0.277375 0.715680
vt 0.393855 0.715678
vt 0.510339 0.685064
vt 0.626830 0.685053
vt 0.510340 0.715672
vt 0.626832 0.715663
vt 0.743332 0.715651
vt 0.743330 0.685039
vt 0.859836 0.685024
vt 0.859839 0.715637
vt 0.044420 0.715680
vt 0.976346 0.715622
vt 0.160897 0.715680
vt 0.976344 0.685010
vt 0.044420 0.685075
vt 0.160897 0.685075
vt 0.258593 0.239007
vt 0.193179 0.396930
vt 0.100669 0.173593
vt 0.193179 0.081083
vt 0.324007 0.081083
vt 0.416517 0.173593
vt 0.416517 0.304421
vt 0.324007 0.396930
vt 0.100669 0.304421
s 1
f 1/1/1 2/2/2 4/4/3
f 3/3/4 1/1/1 4/4/3
f 6/6/5 3/3/4 4/4/3
f 2/2/2 5/5/6 4/4/3
f 4/4/3 5/5/6 8/8/7
f 6/6/5 4/4/3 9/9/8
f 4/4/3 7/7/9 9/9/8
f 7/7/9 4/4/3 8/8/7
f 6/6/5 9/9/8 10/10/10
f 10/10/10 9/9/8 12/12/11
f 12/12/11 9/9/8 11/11/12
f 9/9/8 7/7/9 11/11/12
f 13/13/13 10/10/10 12/12/11
f 13/13/13 12/12/11 14/14/14
f 12/12/11 15/15/15 14/14/14
f 12/12/11 11/11/12 15/15/15
f 14/14/14 15/15/15 17/17/16
f 17/17/16 15/15/15 16/16/17
f 15/15/15 18/18/18 16/16/17
f 11/11/12 18/18/18 15/15/15
f 18/18/18 11/11/12 19/19/19
f 18/18/18 19/19/19 16/16/17
f 11/11/12 20/20/20 19/19/19
f 20/20/20 24/24/21 19/19/19
f 24/24/21 21/21/22 19/19/19
f 19/19/19 21/21/22 23/23/23
f 19/19/19 22/22/24 16/16/17
f 22/22/24 19/19/19 23/23/23
f 20/20/20 8/8/7 24/24/21
f 8/8/7 26/26/25 24/24/21
f 24/24/21 26/26/25 25/25/26
f 24/24/21 25/25/26 27/27/27
f 21/21/22 24/24/21 27/27/27
f 21/21/22 27/27/27 23/23/23
f 27/27/27 25/25/26 28/29/28
f 27/27/27 28/29/28 29/30/29
f 27/27/27 29/30/29 23/23/23
f 28/29/28 30/31/30 29/30/29
f 28/28/28 32/34/31 30/32/30
f 32/34/31 31/33/32 30/32/30
f 13/13/13 14/14/14 32/34/31
f 33/35/33 13/13/13 32/34/31
f 33/35/33 32/34/31 28/28/28
f 32/34/31 14/14/14 34/36/34
f 31/33/32 32/34/31 34/36/34
f 34/36/34 14/14/14 17/17/16
f 35/37/35 36/39/36 33/35/33
f 35/37/35 33/35/33 28/28/28
f 36/39/36 37/41/37 33/35/33
f 33/35/33 37/41/37 13/13/13
f 38/42/38 37/41/37 36/39/36
f 37/41/37 38/42/38 10/10/10
f 37/41/37 10/10/10 13/13/13
f 39/43/39 43/49/40 38/42/38
f 42/48/41 39/43/39 38/42/38
f 41/46/42 40/44/43 38/42/38
f 40/44/43 42/48/41 38/42/38
f 41/46/42 38/42/38 36/39/36
f 38/42/38 43/49/40 10/10/10
f 39/43/39 3/3/4 43/49/40
f 3/3/4 6/6/5 43/49/40
f 43/49/40 6/6/5 10/10/10
f 40/45/43 41/47/42 44/50/44
f 44/50/44 41/47/42 36/40/36
f 46/52/45 44/50/44 45/51/46
f 45/51/46 44/50/44 47/53/47
f 46/52/45 40/45/43 44/50/44
f 47/53/47 44/50/44 36/40/36
f 26/26/25 45/51/46 47/53/47
f 26/26/25 47/53/47 25/25/26
f 47/53/47 36/40/36 25/25/26
f 48/54/48 46/52/45 45/51/46
f 2/2/2 48/54/48 5/5/6
f 48/54/48 45/51/46 5/5/6
f 5/5/6 45/51/46 8/8/7
f 45/51/46 26/26/25 8/8/7
f 36/40/36 35/38/35 25/25/26
f 25/25/26 35/38/35 28/29/28
f 8/8/7 20/20/20 11/11/12
f 7/7/9 8/8/7 11/11/12
f 50/56/49 49/55/49 52/58/49
f 49/55/49 50/56/49 51/57/49
f 54/61/49 52/58/49 53/59/49
f 54/61/49 50/56/49 52/58/49
f 55/62/49 54/61/49 53/59/49
f 56/64/49 55/63/49 57/65/49
f 55/63/49 53/60/49 57/65/49
f 58/66/49 59/67/49 57/65/49
f 59/67/49 56/64/49 57/65/49
f 59/67/49 58/66/49 60/68/49
f 61/69/49 59/67/49 60/68/49
f 62/70/49 61/69/49 60/68/49
f 63/71/49 62/70/49 64/72/49
f 64/72/49 62/70/49 60/68/49
f 51/57/49 63/71/49 64/72/49
f 50/56/49 63/71/49 51/57/49
f 67/75/50 66/74/50 65/73/51
f 68/76/51 67/75/50 65/73/51
f 68/76/51 65/73/51 69/77/52
f 71/79/52 69/77/52 70/78/53
f 71/79/52 68/76/51 69/77/52
f 72/80/53 71/79/52 70/78/53
f 72/80/53 70/78/53 74/82/54
f 73/81/54 72/80/53 74/82/54
f 75/83/55 76/84/55 74/82/54
f 76/84/55 73/81/54 74/82/54
f 77/86/56 76/84/55 75/83/55
f 78/87/57 77/85/56 79/89/56
f 79/88/56 77/86/56 75/83/55
f 80/90/57 78/87/57 79/89/56
f 66/74/50 67/75/50 80/90/57
f 67/75/50 78/87/57 80/90/57
f 88/98/58 82/92/59 81/91/49
f 82/92/59 89/99/60 81/91/49
f 83/93/61 84/94/62 81/91/49
f 89/99/60 83/93/61 81/91/49
f 84/94/62 85/95/63 81/91/49
f 85/95/63 86/96/64 81/91/49
f 86/96/64 87/97/65 81/91/49
f 87/97/65 88/98/58 81/91/49
