# Blender 3.5.1
# www.blender.org
mtllib barrelturu.mtl
o Circle.031_Circle.041
v 0.082470 1.177292 -0.123426
v 0.175021 2.323145 -0.436621
v 0.078030 0.584011 0.909834
v 0.909706 0.810991 -0.536972
v 1.030114 2.301746 -0.944437
v 0.903929 0.039139 0.807297
v 1.790386 0.594713 -0.752882
v 1.923661 2.244776 -1.203892
v 1.783992 -0.259621 0.735041
v 1.908222 0.182215 2.388271
v 3.440706 0.391521 -0.896454
v 3.434091 -0.492186 0.642609
v 3.562592 -0.035154 2.352655
v 4.772650 0.168339 2.048426
v 4.666323 -0.209818 0.633461
v 5.477671 0.684620 -0.371145
v 5.473307 0.101685 0.644093
v 4.671796 0.521395 -0.640030
v 4.785864 1.933649 -1.026028
v 3.578562 2.098295 -1.362965
v 4.941708 3.199665 -0.298437
v 5.568606 1.810492 -0.678877
v 5.692846 2.819771 -0.098829
v 3.766905 3.628319 -0.483624
v 3.895405 4.085339 1.226423
v 2.105747 3.723976 -0.353775
v 5.048034 3.577822 1.116550
v 5.042561 2.846611 2.390030
v 5.777612 3.121250 1.029203
v 5.773248 2.538305 2.044451
v 5.682312 1.412443 2.352173
v 4.928492 1.434347 2.776028
v 3.750935 1.494867 3.231987
v 5.558071 0.403154 1.772135
v 3.888791 3.201633 2.765488
v 2.223583 3.311464 2.787399
v 2.090308 1.661404 3.238396
v 1.180669 1.774691 3.068935
v 0.164300 0.890842 2.057894
v 0.383295 3.063883 2.335043
v 1.301076 3.265432 2.661478
v 0.290745 1.918032 2.648237
v 1.016165 0.438318 2.300905
v 1.306855 4.037296 1.317211
v 1.194617 3.638107 -0.176407
v 0.387736 3.657164 1.301790
v 2.229977 4.165800 1.299465
v 0.301466 3.350332 0.153730
v 5.504895 0.855358 -0.148649
v 5.477671 0.684620 -0.371145
v 5.579080 1.773829 -0.399693
v 5.501334 0.379810 0.679556
v 5.570485 0.625753 1.599789
v 5.473307 0.101685 0.644093
v 5.558071 0.403154 1.772135
v 5.682312 1.412443 2.352173
v 5.671839 1.449108 2.072989
v 5.746023 2.367569 1.821966
v 5.773248 2.538305 2.044451
v 5.749581 2.843115 0.993729
v 5.777612 3.121250 1.029203
v 5.692846 2.819771 -0.098829
v 5.568606 1.810492 -0.678877
v 5.680432 2.597176 0.073498
v 5.295058 0.875168 -0.138176
v 5.369243 1.793638 -0.389219
v 5.579080 1.773829 -0.399693
v 5.504895 0.855358 -0.148649
v 5.291497 0.399620 0.690029
v 5.360648 0.645563 1.610262
v 5.501334 0.379810 0.679556
v 5.570485 0.625753 1.599789
v 5.671839 1.449108 2.072989
v 5.462002 1.468918 2.083462
v 5.536186 2.387379 1.832439
v 5.746023 2.367569 1.821966
v 5.749581 2.843115 0.993729
v 5.680432 2.597176 0.073498
v 5.539744 2.862925 1.004204
v 5.470595 2.616985 0.083971
v 5.433778 1.629559 0.846214
v 5.295058 0.875168 -0.138176
v 5.470595 2.616985 0.083971
v 5.539744 2.862925 1.004204
v 5.536186 2.387379 1.832439
v 5.462002 1.468918 2.083462
v 5.360648 0.645563 1.610262
v 5.291497 0.399620 0.690029
v 5.369243 1.793638 -0.389219
vn -0.5536 -0.4903 -0.6731
vn -0.5012 0.1590 -0.8506
vn -0.4333 -0.5365 -0.7242
vn -0.5561 -0.8265 -0.0877
vn -0.4360 -0.8942 -0.1011
vn -0.3775 0.1545 -0.9130
vn -0.1728 0.1417 -0.9747
vn -0.2345 -0.9649 -0.1179
vn -0.2317 -0.5874 -0.7754
vn -0.1796 -0.7697 0.6126
vn 0.0324 -0.9908 -0.1313
vn 0.0353 -0.6130 -0.7893
vn 0.0874 -0.7954 0.5997
vn 0.3351 -0.7668 0.5474
vn 0.2838 -0.9493 -0.1353
vn 0.3584 -0.9238 -0.1348
vn 0.3609 -0.5834 -0.7276
vn 0.2864 -0.5965 -0.7498
vn 0.3415 0.0850 -0.9360
vn 0.0942 0.1166 -0.9887
vn 0.1747 0.7707 -0.6128
vn 0.4167 0.6958 -0.5850
vn 0.4866 0.6633 -0.5686
vn 0.4140 0.0740 -0.9073
vn -0.0923 0.7954 -0.5991
vn 0.2296 0.9661 0.1183
vn 0.4680 0.8783 0.0978
vn 0.4653 0.5255 0.7123
vn 0.5361 0.8394 0.0901
vn 0.5335 0.4990 0.6829
vn 0.4103 -0.1560 0.8985
vn 0.4804 -0.1584 0.8626
vn 0.1679 -0.1414 0.9756
vn 0.4079 -0.7478 0.5239
vn 0.2268 0.5883 0.7762
vn -0.0402 0.6131 0.7890
vn -0.0991 -0.1161 0.9883
vn -0.3077 -0.0898 0.9472
vn -0.5072 -0.6526 0.5629
vn -0.3840 -0.7092 0.5912
vn -0.4356 -0.0706 0.8974
vn -0.2519 0.6012 0.7584
vn -0.3831 0.5787 0.7199
vn -0.2492 0.9589 0.1353
vn -0.3806 0.9149 0.1344
vn -0.3013 0.7739 -0.5570
vn -0.0374 0.9906 0.1315
vn -0.4295 0.7410 -0.5161
vn 0.9943 -0.0939 -0.0496
vn 0.0372 -0.1301 0.9908
vn 0.0966 0.6059 0.7896
vn 0.0995 0.9870 0.1259
vn 0.0441 0.7900 -0.6116
vn -0.0372 0.1301 -0.9908
vn -0.0966 -0.6059 -0.7896
vn -0.0995 -0.9870 -0.1259
vn -0.0441 -0.7900 0.6116
vn 0.9928 -0.1083 -0.0515
vn 0.9928 -0.1027 -0.0612
vn 0.9937 -0.0920 -0.0641
vn 0.9949 -0.0823 -0.0586
vn 0.9957 -0.0794 -0.0478
vn 0.9957 -0.0850 -0.0381
vn 0.9948 -0.0958 -0.0351
vn 0.9936 -0.1054 -0.0407
vt 0.511551 0.445725
vt 0.634361 0.444895
vt 0.394998 0.445057
vt 0.511541 0.535801
vt 0.634830 0.537708
vt 0.396073 0.535392
vt 0.511728 0.620212
vt 0.635565 0.620379
vt 0.395713 0.621545
vt 0.278134 0.621378
vt 0.511155 0.772839
vt 0.395397 0.771609
vt 0.278074 0.771877
vt 0.278408 0.888510
vt 0.395916 0.889410
vt 0.513477 0.978570
vt 0.395468 0.979422
vt 0.511859 0.888813
vt 0.632496 0.889713
vt 0.634736 0.772571
vt 0.748440 0.889116
vt 0.631486 0.979217
vt 0.749496 0.978365
vt 0.748930 0.772302
vt 0.867817 0.772034
vt 0.748451 0.620545
vt 0.867513 0.888518
vt 0.040263 0.889705
vt 0.985021 0.889418
vt 0.867505 0.979012
vt 0.985514 0.979659
vt 0.039876 0.978980
vt 0.159450 0.979627
vt 0.159335 0.889482
vt 0.159187 0.771771
vt 0.277459 0.978775
vt 0.040690 0.772040
vt 0.985140 0.771765
vt 0.040629 0.621046
vt 0.985174 0.620878
vt 0.160946 0.621212
vt 0.160836 0.536072
vt 0.278445 0.445887
vt 0.040255 0.444550
vt 0.985584 0.443903
vt 0.039893 0.535663
vt 0.985926 0.538936
vt 0.160719 0.443720
vt 0.277477 0.534982
vt 0.867330 0.538527
vt 0.748733 0.538117
vt 0.867467 0.444733
vt 0.867595 0.620712
vt 0.749350 0.445563
vt 0.487327 0.717817
vt 0.473362 0.690765
vt 0.512076 0.717911
vt 0.462578 0.717724
vt 0.437829 0.717630
vt 0.635821 0.718380
vt 0.443024 0.690650
vt 0.412687 0.690534
vt 0.655388 0.691457
vt 0.625050 0.691341
vt 0.611072 0.718287
vt 0.586323 0.718193
vt 0.594712 0.691226
vt 0.561574 0.718099
vt 0.564375 0.691111
vt 0.534037 0.690995
vt 0.503700 0.690880
vt 0.536825 0.718005
vt 0.393854 0.685072
vt 0.277375 0.685075
vt 0.277375 0.715680
vt 0.393855 0.715678
vt 0.510339 0.685064
vt 0.626830 0.685053
vt 0.510340 0.715672
vt 0.626832 0.715663
vt 0.743332 0.715651
vt 0.743330 0.685039
vt 0.859836 0.685024
vt 0.859839 0.715637
vt 0.044420 0.715680
vt 0.976346 0.715622
vt 0.160897 0.715680
vt 0.976344 0.685010
vt 0.044420 0.685075
vt 0.160897 0.685075
vt 0.258593 0.239007
vt 0.193179 0.396930
vt 0.100669 0.173593
vt 0.193179 0.081083
vt 0.324007 0.081083
vt 0.416517 0.173593
vt 0.416517 0.304421
vt 0.324007 0.396930
vt 0.100669 0.304421
s 1
f 1/1/1 2/2/2 4/4/3
f 3/3/4 1/1/1 4/4/3
f 6/6/5 3/3/4 4/4/3
f 2/2/2 5/5/6 4/4/3
f 4/4/3 5/5/6 8/8/7
f 6/6/5 4/4/3 9/9/8
f 4/4/3 7/7/9 9/9/8
f 7/7/9 4/4/3 8/8/7
f 6/6/5 9/9/8 10/10/10
f 10/10/10 9/9/8 12/12/11
f 12/12/11 9/9/8 11/11/12
f 9/9/8 7/7/9 11/11/12
f 13/13/13 10/10/10 12/12/11
f 13/13/13 12/12/11 14/14/14
f 12/12/11 15/15/15 14/14/14
f 12/12/11 11/11/12 15/15/15
f 14/14/14 15/15/15 17/17/16
f 17/17/16 15/15/15 16/16/17
f 15/15/15 18/18/18 16/16/17
f 11/11/12 18/18/18 15/15/15
f 18/18/18 11/11/12 19/19/19
f 18/18/18 19/19/19 16/16/17
f 11/11/12 20/20/20 19/19/19
f 20/20/20 24/24/21 19/19/19
f 24/24/21 21/21/22 19/19/19
f 19/19/19 21/21/22 23/23/23
f 19/19/19 22/22/24 16/16/17
f 22/22/24 19/19/19 23/23/23
f 20/20/20 8/8/7 24/24/21
f 8/8/7 26/26/25 24/24/21
f 24/24/21 26/26/25 25/25/26
f 24/24/21 25/25/26 27/27/27
f 21/21/22 24/24/21 27/27/27
f 21/21/22 27/27/27 23/23/23
f 27/27/27 25/25/26 28/29/28
f 27/27/27 28/29/28 29/30/29
f 27/27/27 29/30/29 23/23/23
f 28/29/28 30/31/30 29/30/29
f 28/28/28 32/34/31 30/32/30
f 32/34/31 31/33/32 30/32/30
f 13/13/13 14/14/14 32/34/31
f 33/35/33 13/13/13 32/34/31
f 33/35/33 32/34/31 28/28/28
f 32/34/31 14/14/14 34/36/34
f 31/33/32 32/34/31 34/36/34
f 34/36/34 14/14/14 17/17/16
f 35/37/35 36/39/36 33/35/33
f 35/37/35 33/35/33 28/28/28
f 36/39/36 37/41/37 33/35/33
f 33/35/33 37/41/37 13/13/13
f 38/42/38 37/41/37 36/39/36
f 37/41/37 38/42/38 10/10/10
f 37/41/37 10/10/10 13/13/13
f 39/43/39 43/49/40 38/42/38
f 42/48/41 39/43/39 38/42/38
f 41/46/42 40/44/43 38/42/38
f 40/44/43 42/48/41 38/42/38
f 41/46/42 38/42/38 36/39/36
f 38/42/38 43/49/40 10/10/10
f 39/43/39 3/3/4 43/49/40
f 3/3/4 6/6/5 43/49/40
f 43/49/40 6/6/5 10/10/10
f 40/45/43 41/47/42 44/50/44
f 44/50/44 41/47/42 36/40/36
f 46/52/45 44/50/44 45/51/46
f 45/51/46 44/50/44 47/53/47
f 46/52/45 40/45/43 44/50/44
f 47/53/47 44/50/44 36/40/36
f 26/26/25 45/51/46 47/53/47
f 26/26/25 47/53/47 25/25/26
f 47/53/47 36/40/36 25/25/26
f 48/54/48 46/52/45 45/51/46
f 2/2/2 48/54/48 5/5/6
f 48/54/48 45/51/46 5/5/6
f 5/5/6 45/51/46 8/8/7
f 45/51/46 26/26/25 8/8/7
f 36/40/36 35/38/35 25/25/26
f 25/25/26 35/38/35 28/29/28
f 8/8/7 20/20/20 11/11/12
f 7/7/9 8/8/7 11/11/12
f 50/56/49 49/55/49 52/58/49
f 49/55/49 50/56/49 51/57/49
f 54/61/49 52/58/49 53/59/49
f 54/61/49 50/56/49 52/58/49
f 55/62/49 54/61/49 53/59/49
f 56/64/49 55/63/49 57/65/49
f 55/63/49 53/60/49 57/65/49
f 58/66/49 59/67/49 57/65/49
f 59/67/49 56/64/49 57/65/49
f 59/67/49 58/66/49 60/68/49
f 61/69/49 59/67/49 60/68/49
f 62/70/49 61/69/49 60/68/49
f 63/71/49 62/70/49 64/72/49
f 64/72/49 62/70/49 60/68/49
f 51/57/49 63/71/49 64/72/49
f 50/56/49 63/71/49 51/57/49
f 67/75/50 66/74/50 65/73/51
f 68/76/51 67/75/50 65/73/51
f 68/76/51 65/73/51 69/77/52
f 71/79/52 69/77/52 70/78/53
f 71/79/52 68/76/51 69/77/52
f 72/80/53 71/79/52 70/78/53
f 72/80/53 70/78/53 74/82/54
f 73/81/54 72/80/53 74/82/54
f 75/83/55 76/84/55 74/82/54
f 76/84/55 73/81/54 74/82/54
f 77/86/56 76/84/55 75/83/55
f 78/87/57 77/85/56 79/89/56
f 79/88/56 77/86/56 75/83/55
f 80/90/57 78/87/57 79/89/56
f 66/74/50 67/75/50 80/90/57
f 67/75/50 78/87/57 80/90/57
f 88/98/58 82/92/59 81/91/49
f 82/92/59 89/99/60 81/91/49
f 83/93/61 84/94/62 81/91/49
f 89/99/60 83/93/61 81/91/49
f 84/94/62 85/95/63 81/91/49
f 85/95/63 86/96/64 81/91/49
f 86/96/64 87/97/65 81/91/49
f 87/97/65 88/98/58 81/91/49
